<svg width="182" height="58" viewBox="0 0 182 58" fill="none" xmlns="http://www.w3.org/2000/svg">
<rect width="182" height="58" rx="12" fill="white"/>
<path d="M17.1587 19V11.428H14.6507V10.6H20.6747V11.428H18.1667V19H17.1587ZM23.4795 19.144C22.9195 19.144 22.4155 19.016 21.9675 18.76C21.5195 18.504 21.1635 18.144 20.8995 17.68C20.6435 17.208 20.5155 16.656 20.5155 16.024C20.5155 15.392 20.6475 14.844 20.9115 14.38C21.1755 13.908 21.5315 13.544 21.9795 13.288C22.4355 13.032 22.9435 12.904 23.5035 12.904C24.0635 12.904 24.5675 13.032 25.0155 13.288C25.4635 13.544 25.8155 13.908 26.0715 14.38C26.3355 14.844 26.4675 15.392 26.4675 16.024C26.4675 16.656 26.3355 17.208 26.0715 17.68C25.8075 18.144 25.4475 18.504 24.9915 18.76C24.5435 19.016 24.0395 19.144 23.4795 19.144ZM23.4795 18.28C23.8235 18.28 24.1435 18.196 24.4395 18.028C24.7355 17.86 24.9755 17.608 25.1595 17.272C25.3435 16.936 25.4355 16.52 25.4355 16.024C25.4355 15.528 25.3435 15.112 25.1595 14.776C24.9835 14.44 24.7475 14.188 24.4515 14.02C24.1555 13.852 23.8395 13.768 23.5035 13.768C23.1595 13.768 22.8395 13.852 22.5435 14.02C22.2475 14.188 22.0075 14.44 21.8235 14.776C21.6395 15.112 21.5475 15.528 21.5475 16.024C21.5475 16.52 21.6395 16.936 21.8235 17.272C22.0075 17.608 22.2435 17.86 22.5315 18.028C22.8275 18.196 23.1435 18.28 23.4795 18.28ZM29.9866 19C29.4426 19 29.0146 18.868 28.7026 18.604C28.3906 18.34 28.2346 17.864 28.2346 17.176V13.9H27.2026V13.048H28.2346L28.3666 11.62H29.2426V13.048H30.9946V13.9H29.2426V17.176C29.2426 17.552 29.3186 17.808 29.4706 17.944C29.6226 18.072 29.8906 18.136 30.2746 18.136H30.8986V19H29.9866ZM34.2553 19.144C33.7593 19.144 33.3473 19.06 33.0193 18.892C32.6913 18.724 32.4473 18.5 32.2873 18.22C32.1273 17.94 32.0473 17.636 32.0473 17.308C32.0473 16.7 32.2793 16.232 32.7433 15.904C33.2073 15.576 33.8393 15.412 34.6393 15.412H36.2473V15.34C36.2473 14.82 36.1113 14.428 35.8393 14.164C35.5673 13.892 35.2033 13.756 34.7473 13.756C34.3553 13.756 34.0153 13.856 33.7273 14.056C33.4473 14.248 33.2713 14.532 33.1993 14.908H32.1673C32.2073 14.476 32.3513 14.112 32.5993 13.816C32.8553 13.52 33.1713 13.296 33.5473 13.144C33.9233 12.984 34.3233 12.904 34.7473 12.904C35.5793 12.904 36.2033 13.128 36.6193 13.576C37.0433 14.016 37.2553 14.604 37.2553 15.34V19H36.3553L36.2953 17.932C36.1273 18.268 35.8793 18.556 35.5513 18.796C35.2313 19.028 34.7993 19.144 34.2553 19.144ZM34.4113 18.292C34.7953 18.292 35.1233 18.192 35.3953 17.992C35.6753 17.792 35.8873 17.532 36.0313 17.212C36.1753 16.892 36.2473 16.556 36.2473 16.204V16.192H34.7233C34.1313 16.192 33.7113 16.296 33.4633 16.504C33.2233 16.704 33.1033 16.956 33.1033 17.26C33.1033 17.572 33.2153 17.824 33.4393 18.016C33.6713 18.2 33.9953 18.292 34.4113 18.292ZM38.7675 19V10.36H39.7755V19H38.7675ZM47.3394 19.144C46.7234 19.144 46.1874 19.032 45.7314 18.808C45.2754 18.584 44.9234 18.272 44.6754 17.872C44.4274 17.472 44.3034 17.008 44.3034 16.48H45.3594C45.3594 16.808 45.4354 17.112 45.5874 17.392C45.7394 17.664 45.9594 17.884 46.2474 18.052C46.5434 18.212 46.9074 18.292 47.3394 18.292C47.9074 18.292 48.3474 18.156 48.6594 17.884C48.9714 17.612 49.1274 17.272 49.1274 16.864C49.1274 16.528 49.0554 16.26 48.9114 16.06C48.7674 15.852 48.5714 15.684 48.3234 15.556C48.0834 15.428 47.8034 15.316 47.4834 15.22C47.1714 15.124 46.8434 15.016 46.4994 14.896C45.8514 14.672 45.3714 14.396 45.0594 14.068C44.7474 13.732 44.5914 13.296 44.5914 12.76C44.5834 12.312 44.6874 11.916 44.9034 11.572C45.1194 11.22 45.4234 10.948 45.8154 10.756C46.2154 10.556 46.6874 10.456 47.2314 10.456C47.7674 10.456 48.2314 10.556 48.6234 10.756C49.0234 10.956 49.3314 11.232 49.5474 11.584C49.7714 11.936 49.8874 12.336 49.8954 12.784H48.8394C48.8394 12.552 48.7794 12.324 48.6594 12.1C48.5394 11.868 48.3554 11.68 48.1074 11.536C47.8674 11.392 47.5634 11.32 47.1954 11.32C46.7394 11.312 46.3634 11.428 46.0674 11.668C45.7794 11.908 45.6354 12.24 45.6354 12.664C45.6354 13.024 45.7354 13.3 45.9354 13.492C46.1434 13.684 46.4314 13.844 46.7994 13.972C47.1674 14.092 47.5914 14.232 48.0714 14.392C48.4714 14.536 48.8314 14.704 49.1514 14.896C49.4714 15.088 49.7194 15.336 49.8954 15.64C50.0794 15.944 50.1714 16.332 50.1714 16.804C50.1714 17.204 50.0674 17.584 49.8594 17.944C49.6514 18.296 49.3354 18.584 48.9114 18.808C48.4954 19.032 47.9714 19.144 47.3394 19.144ZM53.5209 19.144C53.0249 19.144 52.6129 19.06 52.2849 18.892C51.9569 18.724 51.7129 18.5 51.5529 18.22C51.3929 17.94 51.3129 17.636 51.3129 17.308C51.3129 16.7 51.5449 16.232 52.0089 15.904C52.4729 15.576 53.1049 15.412 53.9049 15.412H55.5129V15.34C55.5129 14.82 55.3769 14.428 55.1049 14.164C54.8329 13.892 54.4689 13.756 54.0129 13.756C53.6209 13.756 53.2809 13.856 52.9929 14.056C52.7129 14.248 52.5369 14.532 52.4649 14.908H51.4329C51.4729 14.476 51.6169 14.112 51.8649 13.816C52.1209 13.52 52.4369 13.296 52.8129 13.144C53.1889 12.984 53.5889 12.904 54.0129 12.904C54.8449 12.904 55.4689 13.128 55.8849 13.576C56.3089 14.016 56.5209 14.604 56.5209 15.34V19H55.6209L55.5609 17.932C55.3929 18.268 55.1449 18.556 54.8169 18.796C54.4969 19.028 54.0649 19.144 53.5209 19.144ZM53.6769 18.292C54.0609 18.292 54.3889 18.192 54.6609 17.992C54.9409 17.792 55.1529 17.532 55.2969 17.212C55.4409 16.892 55.5129 16.556 55.5129 16.204V16.192H53.9889C53.3969 16.192 52.9769 16.296 52.7289 16.504C52.4889 16.704 52.3689 16.956 52.3689 17.26C52.3689 17.572 52.4809 17.824 52.7049 18.016C52.9369 18.2 53.2609 18.292 53.6769 18.292ZM58.0331 19V10.36H59.0411V19H58.0331ZM63.3692 19.144C62.8012 19.144 62.2972 19.016 61.8572 18.76C61.4172 18.496 61.0692 18.132 60.8132 17.668C60.5652 17.204 60.4412 16.656 60.4412 16.024C60.4412 15.4 60.5652 14.856 60.8132 14.392C61.0612 13.92 61.4052 13.556 61.8452 13.3C62.2932 13.036 62.8092 12.904 63.3932 12.904C63.9692 12.904 64.4652 13.036 64.8812 13.3C65.3052 13.556 65.6292 13.896 65.8532 14.32C66.0772 14.744 66.1892 15.2 66.1892 15.688C66.1892 15.776 66.1852 15.864 66.1772 15.952C66.1772 16.04 66.1772 16.14 66.1772 16.252H61.4372C61.4612 16.708 61.5652 17.088 61.7492 17.392C61.9412 17.688 62.1772 17.912 62.4572 18.064C62.7452 18.216 63.0492 18.292 63.3692 18.292C63.7852 18.292 64.1332 18.196 64.4132 18.004C64.6932 17.812 64.8972 17.552 65.0252 17.224H66.0212C65.8612 17.776 65.5532 18.236 65.0972 18.604C64.6492 18.964 64.0732 19.144 63.3692 19.144ZM63.3692 13.756C62.8892 13.756 62.4612 13.904 62.0852 14.2C61.7172 14.488 61.5052 14.912 61.4492 15.472H65.1932C65.1692 14.936 64.9852 14.516 64.6412 14.212C64.2972 13.908 63.8732 13.756 63.3692 13.756ZM69.8053 19.144C69.0933 19.144 68.5013 18.964 68.0293 18.604C67.5573 18.244 67.2813 17.756 67.2013 17.14H68.2333C68.2973 17.452 68.4613 17.724 68.7253 17.956C68.9973 18.18 69.3613 18.292 69.8173 18.292C70.2413 18.292 70.5533 18.204 70.7533 18.028C70.9533 17.844 71.0533 17.628 71.0533 17.38C71.0533 17.02 70.9213 16.78 70.6573 16.66C70.4013 16.54 70.0373 16.432 69.5653 16.336C69.2453 16.272 68.9253 16.18 68.6053 16.06C68.2853 15.94 68.0173 15.772 67.8013 15.556C67.5853 15.332 67.4773 15.04 67.4773 14.68C67.4773 14.16 67.6693 13.736 68.0533 13.408C68.4453 13.072 68.9733 12.904 69.6373 12.904C70.2693 12.904 70.7853 13.064 71.1853 13.384C71.5933 13.696 71.8293 14.144 71.8933 14.728H70.8973C70.8573 14.424 70.7253 14.188 70.5013 14.02C70.2853 13.844 69.9933 13.756 69.6253 13.756C69.2653 13.756 68.9853 13.832 68.7853 13.984C68.5933 14.136 68.4973 14.336 68.4973 14.584C68.4973 14.824 68.6213 15.012 68.8693 15.148C69.1253 15.284 69.4693 15.4 69.9013 15.496C70.2693 15.576 70.6173 15.676 70.9453 15.796C71.2813 15.908 71.5533 16.08 71.7613 16.312C71.9773 16.536 72.0853 16.864 72.0853 17.296C72.0933 17.832 71.8893 18.276 71.4733 18.628C71.0653 18.972 70.5093 19.144 69.8053 19.144Z" fill="#565656"/>
<path d="M18.6537 44.892V43.66C17.619 43.5427 16.7764 43.18 16.1257 42.572C15.475 41.964 15.139 41.148 15.1177 40.124H17.2777C17.299 40.5507 17.427 40.924 17.6617 41.244C17.907 41.564 18.2377 41.7827 18.6537 41.9V38.524C18.5577 38.492 18.4564 38.46 18.3497 38.428C18.2537 38.396 18.1524 38.364 18.0457 38.332C17.1817 38.0333 16.5204 37.6493 16.0617 37.18C15.6137 36.7107 15.3897 36.0867 15.3897 35.308C15.379 34.3907 15.6777 33.6547 16.2857 33.1C16.8937 32.5347 17.683 32.2093 18.6537 32.124V30.828H19.7257V32.14C20.6857 32.236 21.459 32.572 22.0457 33.148C22.643 33.7133 22.9577 34.444 22.9897 35.34H20.7977C20.787 35.0307 20.6857 34.748 20.4937 34.492C20.3124 34.2253 20.0564 34.0387 19.7257 33.932V36.908C19.811 36.94 19.8964 36.972 19.9817 37.004C20.067 37.0253 20.1524 37.052 20.2377 37.084C20.7924 37.276 21.299 37.5 21.7577 37.756C22.2164 38.012 22.5844 38.3533 22.8617 38.78C23.139 39.196 23.2777 39.7347 23.2777 40.396C23.2777 40.9507 23.139 41.468 22.8617 41.948C22.595 42.428 22.195 42.828 21.6617 43.148C21.139 43.4573 20.4937 43.6333 19.7257 43.676V44.892H18.6537ZM17.5337 35.164C17.5337 35.5053 17.635 35.7827 17.8377 35.996C18.0404 36.1987 18.3124 36.3747 18.6537 36.524V33.868C18.323 33.932 18.051 34.076 17.8377 34.3C17.635 34.524 17.5337 34.812 17.5337 35.164ZM21.1017 40.54C21.1017 40.1133 20.9737 39.7773 20.7177 39.532C20.4617 39.2867 20.131 39.0787 19.7257 38.908V41.948C20.1524 41.884 20.4884 41.7293 20.7337 41.484C20.979 41.2387 21.1017 40.924 21.1017 40.54ZM29.0166 43.692C28.2486 43.692 27.5552 43.5587 26.9366 43.292C26.3179 43.0147 25.8219 42.6253 25.4486 42.124C25.0859 41.6227 24.9046 41.0413 24.9046 40.38C24.9046 39.6973 25.0806 39.1 25.4326 38.588C25.7952 38.076 26.2699 37.708 26.8566 37.484C26.3446 37.26 25.9392 36.94 25.6406 36.524C25.3419 36.0973 25.1926 35.6227 25.1926 35.1C25.1926 34.5667 25.3366 34.076 25.6246 33.628C25.9126 33.1693 26.3392 32.8013 26.9046 32.524C27.4806 32.2467 28.1846 32.108 29.0166 32.108C29.8486 32.108 30.5472 32.2467 31.1126 32.524C31.6779 32.8013 32.1046 33.1693 32.3926 33.628C32.6806 34.076 32.8246 34.5667 32.8246 35.1C32.8246 35.612 32.6699 36.0867 32.3606 36.524C32.0619 36.9507 31.6619 37.2707 31.1606 37.484C31.7579 37.708 32.2326 38.076 32.5846 38.588C32.9366 39.1 33.1126 39.6973 33.1126 40.38C33.1126 41.0413 32.9312 41.6227 32.5686 42.124C32.2059 42.6253 31.7099 43.0147 31.0806 43.292C30.4619 43.5587 29.7739 43.692 29.0166 43.692ZM29.0166 36.876C29.5712 36.876 30.0086 36.732 30.3286 36.444C30.6486 36.156 30.8086 35.788 30.8086 35.34C30.8086 34.8493 30.6486 34.4653 30.3286 34.188C30.0192 33.9107 29.5819 33.772 29.0166 33.772C28.4406 33.772 27.9979 33.9107 27.6886 34.188C27.3792 34.4653 27.2246 34.8493 27.2246 35.34C27.2246 35.7987 27.3792 36.172 27.6886 36.46C28.0086 36.7373 28.4512 36.876 29.0166 36.876ZM29.0166 41.98C29.6992 41.98 30.2166 41.8147 30.5686 41.484C30.9206 41.1427 31.0966 40.716 31.0966 40.204C31.0966 39.6387 30.9099 39.196 30.5366 38.876C30.1739 38.556 29.6672 38.396 29.0166 38.396C28.3659 38.396 27.8486 38.556 27.4646 38.876C27.0912 39.196 26.9046 39.6387 26.9046 40.204C26.9046 40.716 27.0806 41.1427 27.4326 41.484C27.7952 41.8147 28.3232 41.98 29.0166 41.98ZM39.1431 43.692C38.3217 43.692 37.6124 43.548 37.0151 43.26C36.4284 42.972 35.9644 42.5773 35.6231 42.076C35.2924 41.564 35.1004 40.988 35.0471 40.348H37.0471C37.1431 40.8067 37.3777 41.1907 37.7511 41.5C38.1244 41.7987 38.5884 41.948 39.1431 41.948C39.7404 41.948 40.2257 41.7293 40.5991 41.292C40.9831 40.8547 41.1751 40.3107 41.1751 39.66C41.1751 38.988 40.9831 38.4547 40.5991 38.06C40.2257 37.6653 39.7511 37.468 39.1751 37.468C38.6951 37.468 38.2791 37.5853 37.9271 37.82C37.5751 38.0547 37.3244 38.348 37.1751 38.7H35.2071L36.1671 32.3H42.3751V34.092H37.7031L37.1911 36.684C37.4257 36.428 37.7457 36.22 38.1511 36.06C38.5564 35.8893 39.0097 35.804 39.5111 35.804C40.3111 35.804 40.9777 35.9853 41.5111 36.348C42.0444 36.7 42.4497 37.1693 42.7271 37.756C43.0044 38.332 43.1431 38.9613 43.1431 39.644C43.1431 40.4227 42.9724 41.116 42.6311 41.724C42.3004 42.332 41.8311 42.812 41.2231 43.164C40.6257 43.516 39.9324 43.692 39.1431 43.692ZM50.1689 43.5V41.42H44.6489V39.788L49.8969 32.3H52.2169V39.644H53.6889V41.42H52.2169V43.5H50.1689ZM46.8409 39.644H50.2969V34.556L46.8409 39.644ZM58.9629 43.692C58.2269 43.692 57.5603 43.564 56.9629 43.308C56.3656 43.0413 55.8856 42.636 55.5229 42.092C55.1603 41.548 54.9683 40.8653 54.9469 40.044H56.9629C56.9736 40.588 57.1496 41.0467 57.4909 41.42C57.8429 41.7827 58.3336 41.964 58.9629 41.964C59.5603 41.964 60.0189 41.7987 60.3389 41.468C60.6589 41.1373 60.8189 40.7213 60.8189 40.22C60.8189 39.6333 60.6056 39.1907 60.1789 38.892C59.7629 38.5827 59.2243 38.428 58.5629 38.428H57.7309V36.748H58.5789C59.1229 36.748 59.5763 36.62 59.9389 36.364C60.3016 36.108 60.4829 35.7293 60.4829 35.228C60.4829 34.812 60.3443 34.4813 60.0669 34.236C59.8003 33.98 59.4269 33.852 58.9469 33.852C58.4243 33.852 58.0136 34.0067 57.7149 34.316C57.4269 34.6253 57.2669 35.004 57.2349 35.452H55.2349C55.2776 34.4173 55.6349 33.6013 56.3069 33.004C56.9896 32.4067 57.8696 32.108 58.9469 32.108C59.7149 32.108 60.3603 32.2467 60.8829 32.524C61.4163 32.7907 61.8163 33.148 62.0829 33.596C62.3603 34.044 62.4989 34.54 62.4989 35.084C62.4989 35.7133 62.3229 36.2467 61.9709 36.684C61.6296 37.1107 61.2029 37.3987 60.6909 37.548C61.3203 37.676 61.8323 37.9853 62.2269 38.476C62.6216 38.956 62.8189 39.564 62.8189 40.3C62.8189 40.9187 62.6696 41.484 62.3709 41.996C62.0723 42.508 61.6349 42.9187 61.0589 43.228C60.4936 43.5373 59.7949 43.692 58.9629 43.692ZM63.9662 45.356L64.8782 41.372H66.8622L65.3102 45.356H63.9662ZM72.3573 43.692C71.5786 43.692 70.9226 43.5427 70.3893 43.244C69.856 42.9347 69.44 42.5347 69.1413 42.044C68.8426 41.5533 68.6666 41.0253 68.6133 40.46H70.5173C70.6026 40.9507 70.8053 41.3293 71.1253 41.596C71.456 41.8627 71.872 41.996 72.3733 41.996C73.088 41.996 73.664 41.6707 74.1013 41.02C74.5386 40.3587 74.7733 39.356 74.8053 38.012C74.5493 38.4493 74.16 38.812 73.6373 39.1C73.1253 39.388 72.56 39.532 71.9413 39.532C71.3226 39.532 70.7413 39.3827 70.1973 39.084C69.6533 38.7853 69.2106 38.364 68.8693 37.82C68.528 37.276 68.3573 36.636 68.3573 35.9C68.3573 35.228 68.5226 34.604 68.8533 34.028C69.184 33.452 69.6426 32.988 70.2293 32.636C70.816 32.284 71.504 32.108 72.2933 32.108C73.136 32.108 73.8453 32.2627 74.4213 32.572C74.9973 32.8813 75.456 33.2973 75.7973 33.82C76.1493 34.3427 76.4 34.924 76.5493 35.564C76.7093 36.204 76.7893 36.86 76.7893 37.532C76.7893 38.78 76.6133 39.868 76.2613 40.796C75.92 41.7133 75.4133 42.428 74.7413 42.94C74.08 43.4413 73.2853 43.692 72.3573 43.692ZM72.4213 37.804C72.816 37.804 73.1733 37.7187 73.4933 37.548C73.8133 37.3667 74.064 37.132 74.2453 36.844C74.4266 36.5453 74.5173 36.2147 74.5173 35.852C74.5173 35.276 74.3146 34.8013 73.9093 34.428C73.5146 34.0547 73.0133 33.868 72.4053 33.868C71.808 33.868 71.312 34.0547 70.9173 34.428C70.5226 34.7907 70.3253 35.2547 70.3253 35.82C70.3253 36.4173 70.5226 36.8973 70.9173 37.26C71.312 37.6227 71.8133 37.804 72.4213 37.804ZM82.4979 43.692C81.7193 43.692 81.0633 43.5427 80.5299 43.244C79.9966 42.9347 79.5806 42.5347 79.2819 42.044C78.9833 41.5533 78.8073 41.0253 78.7539 40.46H80.6579C80.7433 40.9507 80.9459 41.3293 81.2659 41.596C81.5966 41.8627 82.0126 41.996 82.5139 41.996C83.2286 41.996 83.8046 41.6707 84.2419 41.02C84.6793 40.3587 84.9139 39.356 84.9459 38.012C84.6899 38.4493 84.3006 38.812 83.7779 39.1C83.2659 39.388 82.7006 39.532 82.0819 39.532C81.4633 39.532 80.8819 39.3827 80.3379 39.084C79.7939 38.7853 79.3513 38.364 79.0099 37.82C78.6686 37.276 78.4979 36.636 78.4979 35.9C78.4979 35.228 78.6633 34.604 78.9939 34.028C79.3246 33.452 79.7833 32.988 80.3699 32.636C80.9566 32.284 81.6446 32.108 82.4339 32.108C83.2766 32.108 83.9859 32.2627 84.5619 32.572C85.1379 32.8813 85.5966 33.2973 85.9379 33.82C86.2899 34.3427 86.5406 34.924 86.6899 35.564C86.8499 36.204 86.9299 36.86 86.9299 37.532C86.9299 38.78 86.7539 39.868 86.4019 40.796C86.0606 41.7133 85.5539 42.428 84.8819 42.94C84.2206 43.4413 83.4259 43.692 82.4979 43.692ZM82.5619 37.804C82.9566 37.804 83.3139 37.7187 83.6339 37.548C83.9539 37.3667 84.2046 37.132 84.3859 36.844C84.5673 36.5453 84.6579 36.2147 84.6579 35.852C84.6579 35.276 84.4553 34.8013 84.0499 34.428C83.6553 34.0547 83.1539 33.868 82.5459 33.868C81.9486 33.868 81.4526 34.0547 81.0579 34.428C80.6633 34.7907 80.4659 35.2547 80.4659 35.82C80.4659 36.4173 80.6633 36.8973 81.0579 37.26C81.4526 37.6227 81.9539 37.804 82.5619 37.804ZM92.6386 43.692C91.8599 43.692 91.2039 43.5427 90.6706 43.244C90.1372 42.9347 89.7212 42.5347 89.4226 42.044C89.1239 41.5533 88.9479 41.0253 88.8946 40.46H90.7986C90.8839 40.9507 91.0866 41.3293 91.4066 41.596C91.7372 41.8627 92.1532 41.996 92.6546 41.996C93.3692 41.996 93.9452 41.6707 94.3826 41.02C94.8199 40.3587 95.0546 39.356 95.0866 38.012C94.8306 38.4493 94.4412 38.812 93.9186 39.1C93.4066 39.388 92.8412 39.532 92.2226 39.532C91.6039 39.532 91.0226 39.3827 90.4786 39.084C89.9346 38.7853 89.4919 38.364 89.1506 37.82C88.8092 37.276 88.6386 36.636 88.6386 35.9C88.6386 35.228 88.8039 34.604 89.1346 34.028C89.4652 33.452 89.9239 32.988 90.5106 32.636C91.0972 32.284 91.7852 32.108 92.5746 32.108C93.4172 32.108 94.1266 32.2627 94.7026 32.572C95.2786 32.8813 95.7372 33.2973 96.0786 33.82C96.4306 34.3427 96.6812 34.924 96.8306 35.564C96.9906 36.204 97.0706 36.86 97.0706 37.532C97.0706 38.78 96.8946 39.868 96.5426 40.796C96.2012 41.7133 95.6946 42.428 95.0226 42.94C94.3612 43.4413 93.5666 43.692 92.6386 43.692ZM92.7026 37.804C93.0972 37.804 93.4546 37.7187 93.7746 37.548C94.0946 37.3667 94.3452 37.132 94.5266 36.844C94.7079 36.5453 94.7986 36.2147 94.7986 35.852C94.7986 35.276 94.5959 34.8013 94.1906 34.428C93.7959 34.0547 93.2946 33.868 92.6866 33.868C92.0892 33.868 91.5932 34.0547 91.1986 34.428C90.8039 34.7907 90.6066 35.2547 90.6066 35.82C90.6066 36.4173 90.8039 36.8973 91.1986 37.26C91.5932 37.6227 92.0946 37.804 92.7026 37.804ZM98.0912 45.356L99.0032 41.372H100.987L99.4352 45.356H98.0912ZM106.866 43.692C106.024 43.692 105.314 43.5373 104.738 43.228C104.162 42.9187 103.698 42.5027 103.346 41.98C102.994 41.4573 102.738 40.876 102.578 40.236C102.429 39.596 102.354 38.94 102.354 38.268C102.354 37.02 102.53 35.9373 102.882 35.02C103.234 34.092 103.741 33.3773 104.402 32.876C105.064 32.364 105.864 32.108 106.802 32.108C107.57 32.108 108.221 32.2627 108.754 32.572C109.298 32.8707 109.72 33.2653 110.018 33.756C110.317 34.2467 110.493 34.7747 110.546 35.34H108.642C108.546 34.8493 108.338 34.4707 108.018 34.204C107.698 33.9373 107.288 33.804 106.786 33.804C106.072 33.804 105.496 34.1347 105.058 34.796C104.621 35.4467 104.386 36.444 104.354 37.788C104.61 37.3507 104.994 36.988 105.506 36.7C106.018 36.412 106.589 36.268 107.218 36.268C107.837 36.268 108.418 36.4173 108.962 36.716C109.506 37.0147 109.944 37.436 110.274 37.98C110.616 38.524 110.786 39.164 110.786 39.9C110.786 40.572 110.621 41.196 110.29 41.772C109.97 42.348 109.512 42.812 108.914 43.164C108.328 43.516 107.645 43.692 106.866 43.692ZM106.754 41.932C107.352 41.932 107.842 41.7507 108.226 41.388C108.621 41.0147 108.818 40.5453 108.818 39.98C108.818 39.3827 108.621 38.9027 108.226 38.54C107.832 38.1773 107.33 37.996 106.722 37.996C106.328 37.996 105.97 38.0867 105.65 38.268C105.341 38.4387 105.096 38.6733 104.914 38.972C104.733 39.26 104.642 39.5853 104.642 39.948C104.642 40.524 104.84 40.9987 105.234 41.372C105.64 41.7453 106.146 41.932 106.754 41.932ZM116.502 43.692C115.681 43.692 114.972 43.548 114.374 43.26C113.788 42.972 113.324 42.5773 112.982 42.076C112.652 41.564 112.46 40.988 112.406 40.348H114.406C114.502 40.8067 114.737 41.1907 115.11 41.5C115.484 41.7987 115.948 41.948 116.502 41.948C117.1 41.948 117.585 41.7293 117.958 41.292C118.342 40.8547 118.534 40.3107 118.534 39.66C118.534 38.988 118.342 38.4547 117.958 38.06C117.585 37.6653 117.11 37.468 116.534 37.468C116.054 37.468 115.638 37.5853 115.286 37.82C114.934 38.0547 114.684 38.348 114.534 38.7H112.566L113.526 32.3H119.734V34.092H115.062L114.55 36.684C114.785 36.428 115.105 36.22 115.51 36.06C115.916 35.8893 116.369 35.804 116.87 35.804C117.67 35.804 118.337 35.9853 118.87 36.348C119.404 36.7 119.809 37.1693 120.086 37.756C120.364 38.332 120.502 38.9613 120.502 39.644C120.502 40.4227 120.332 41.116 119.99 41.724C119.66 42.332 119.19 42.812 118.582 43.164C117.985 43.516 117.292 43.692 116.502 43.692ZM127.528 43.5V41.42H122.008V39.788L127.256 32.3H129.576V39.644H131.048V41.42H129.576V43.5H127.528ZM124.2 39.644H127.656V34.556L124.2 39.644Z" fill="#1F1F1F"/>
<path d="M162 46V36" stroke="#74C9A9" stroke-width="1.66667" stroke-linecap="round" stroke-linejoin="round"/>
<path d="M156 46V30" stroke="#74C9A9" stroke-width="1.66667" stroke-linecap="round" stroke-linejoin="round"/>
<path d="M150 46V40" stroke="#74C9A9" stroke-width="1.66667" stroke-linecap="round" stroke-linejoin="round"/>
</svg>
