<svg width="240" height="54" viewBox="0 0 240 54" fill="none" xmlns="http://www.w3.org/2000/svg">
<rect width="240" height="54" rx="10" fill="white"/>
<path fill-rule="evenodd" clip-rule="evenodd" d="M18.8334 26C18.8334 20.9374 22.9374 16.8334 28 16.8334C33.0626 16.8334 37.1667 20.9374 37.1667 26C37.1667 31.0626 33.0626 35.1667 28 35.1667C22.9374 35.1667 18.8334 31.0626 18.8334 26ZM28 15.1667C22.0169 15.1667 17.1667 20.0169 17.1667 26C17.1667 31.9831 22.0169 36.8334 28 36.8334C33.9831 36.8334 38.8334 31.9831 38.8334 26C38.8334 20.0169 33.9831 15.1667 28 15.1667ZM27.9302 29.6944L33.7196 23.6944L32.2804 22.3057L27.1148 27.6591L23.6137 24.9377L22.3863 26.5168L26.5969 29.7896L27.3063 30.341L27.9302 29.6944Z" fill="#2B9B5B"/>
<path d="M49.4083 32.5V21.3H51.8403L55.4083 28.404L58.9283 21.3H61.3603V32.5H59.3123V24.772L56.1923 30.9H54.5763L51.4563 24.772V32.5H49.4083ZM66.2213 32.692C65.5386 32.692 64.9786 32.5853 64.5413 32.372C64.104 32.148 63.7786 31.8547 63.5653 31.492C63.352 31.1293 63.2453 30.7293 63.2453 30.292C63.2453 29.556 63.5333 28.9587 64.1093 28.5C64.6853 28.0413 65.5493 27.812 66.7013 27.812H68.7173V27.62C68.7173 27.076 68.5626 26.676 68.2533 26.42C67.944 26.164 67.56 26.036 67.1013 26.036C66.6853 26.036 66.3226 26.1373 66.0133 26.34C65.704 26.532 65.512 26.82 65.4373 27.204H63.4373C63.4906 26.628 63.6826 26.1267 64.0133 25.7C64.3546 25.2733 64.792 24.948 65.3253 24.724C65.8586 24.4893 66.456 24.372 67.1173 24.372C68.248 24.372 69.1386 24.6547 69.7893 25.22C70.44 25.7853 70.7653 26.5853 70.7653 27.62V32.5H69.0213L68.8293 31.22C68.5946 31.6467 68.264 31.9987 67.8373 32.276C67.4213 32.5533 66.8826 32.692 66.2213 32.692ZM66.6853 31.092C67.272 31.092 67.7253 30.9 68.0453 30.516C68.376 30.132 68.584 29.6573 68.6693 29.092H66.9253C66.3813 29.092 65.992 29.1933 65.7573 29.396C65.5226 29.588 65.4053 29.828 65.4053 30.116C65.4053 30.4253 65.5226 30.6653 65.7573 30.836C65.992 31.0067 66.3013 31.092 66.6853 31.092ZM72.7197 32.5V24.564H74.5277L74.6877 25.908C74.933 25.4387 75.285 25.0653 75.7437 24.788C76.213 24.5107 76.7624 24.372 77.3917 24.372C78.373 24.372 79.1357 24.6813 79.6797 25.3C80.2237 25.9187 80.4957 26.8253 80.4957 28.02V32.5H78.4477V28.212C78.4477 27.5293 78.309 27.0067 78.0317 26.644C77.7544 26.2813 77.3224 26.1 76.7357 26.1C76.1597 26.1 75.685 26.3027 75.3117 26.708C74.949 27.1133 74.7677 27.6787 74.7677 28.404V32.5H72.7197ZM83.1804 36.02L85.0204 31.972H84.5404L81.4524 24.564H83.6764L85.9004 30.148L88.2204 24.564H90.3964L85.3564 36.02H83.1804ZM99.4198 32.692C98.5985 32.692 97.8731 32.5533 97.2438 32.276C96.6145 31.988 96.1185 31.5827 95.7558 31.06C95.3931 30.5267 95.2065 29.8813 95.1958 29.124H97.3558C97.3771 29.6467 97.5638 30.0893 97.9158 30.452C98.2785 30.804 98.7745 30.98 99.4038 30.98C99.9478 30.98 100.38 30.852 100.7 30.596C101.02 30.3293 101.18 29.9773 101.18 29.54C101.18 29.0813 101.036 28.724 100.748 28.468C100.47 28.212 100.097 28.004 99.6278 27.844C99.1585 27.684 98.6571 27.5133 98.1238 27.332C97.2598 27.0333 96.5985 26.6493 96.1398 26.18C95.6918 25.7107 95.4678 25.0867 95.4678 24.308C95.4571 23.6467 95.6118 23.0813 95.9318 22.612C96.2625 22.132 96.7105 21.764 97.2758 21.508C97.8411 21.2413 98.4918 21.108 99.2278 21.108C99.9745 21.108 100.63 21.2413 101.196 21.508C101.772 21.7747 102.22 22.148 102.54 22.628C102.87 23.108 103.046 23.6787 103.068 24.34H100.876C100.865 23.9453 100.71 23.5987 100.412 23.3C100.124 22.9907 99.7185 22.836 99.1958 22.836C98.7478 22.8253 98.3691 22.9373 98.0598 23.172C97.7611 23.396 97.6118 23.7267 97.6118 24.164C97.6118 24.5373 97.7291 24.836 97.9638 25.06C98.1985 25.2733 98.5185 25.4547 98.9238 25.604C99.3291 25.7533 99.7931 25.9133 100.316 26.084C100.87 26.276 101.377 26.5 101.836 26.756C102.294 27.012 102.662 27.3533 102.94 27.78C103.217 28.196 103.356 28.7347 103.356 29.396C103.356 29.9827 103.206 30.5267 102.908 31.028C102.609 31.5293 102.166 31.9347 101.58 32.244C100.993 32.5427 100.273 32.692 99.4198 32.692ZM108.071 32.692C107.079 32.692 106.311 32.3827 105.767 31.764C105.233 31.1453 104.967 30.2387 104.967 29.044V24.564H106.999V28.852C106.999 29.5347 107.137 30.0573 107.415 30.42C107.692 30.7827 108.129 30.964 108.727 30.964C109.292 30.964 109.756 30.7613 110.119 30.356C110.492 29.9507 110.679 29.3853 110.679 28.66V24.564H112.727V32.5H110.919L110.759 31.156C110.513 31.6253 110.156 31.9987 109.687 32.276C109.228 32.5533 108.689 32.692 108.071 32.692ZM118.717 32.692C117.906 32.692 117.192 32.516 116.573 32.164C115.954 31.812 115.464 31.3213 115.101 30.692C114.749 30.0627 114.573 29.3427 114.573 28.532C114.573 27.7213 114.749 27.0013 115.101 26.372C115.464 25.7427 115.954 25.252 116.573 24.9C117.192 24.548 117.906 24.372 118.717 24.372C119.73 24.372 120.584 24.6387 121.277 25.172C121.97 25.6947 122.413 26.42 122.605 27.348H120.445C120.338 26.964 120.125 26.6653 119.805 26.452C119.496 26.228 119.128 26.116 118.701 26.116C118.136 26.116 117.656 26.3293 117.261 26.756C116.866 27.1827 116.669 27.7747 116.669 28.532C116.669 29.2893 116.866 29.8813 117.261 30.308C117.656 30.7347 118.136 30.948 118.701 30.948C119.128 30.948 119.496 30.8413 119.805 30.628C120.125 30.4147 120.338 30.1107 120.445 29.716H122.605C122.413 30.612 121.97 31.332 121.277 31.876C120.584 32.42 119.73 32.692 118.717 32.692ZM128.311 32.692C127.5 32.692 126.785 32.516 126.167 32.164C125.548 31.812 125.057 31.3213 124.695 30.692C124.343 30.0627 124.167 29.3427 124.167 28.532C124.167 27.7213 124.343 27.0013 124.695 26.372C125.057 25.7427 125.548 25.252 126.167 24.9C126.785 24.548 127.5 24.372 128.311 24.372C129.324 24.372 130.177 24.6387 130.871 25.172C131.564 25.6947 132.007 26.42 132.199 27.348H130.039C129.932 26.964 129.719 26.6653 129.399 26.452C129.089 26.228 128.721 26.116 128.295 26.116C127.729 26.116 127.249 26.3293 126.855 26.756C126.46 27.1827 126.263 27.7747 126.263 28.532C126.263 29.2893 126.46 29.8813 126.855 30.308C127.249 30.7347 127.729 30.948 128.295 30.948C128.721 30.948 129.089 30.8413 129.399 30.628C129.719 30.4147 129.932 30.1107 130.039 29.716H132.199C132.007 30.612 131.564 31.332 130.871 31.876C130.177 32.42 129.324 32.692 128.311 32.692ZM137.873 32.692C137.073 32.692 136.363 32.5213 135.745 32.18C135.126 31.8387 134.641 31.3587 134.289 30.74C133.937 30.1213 133.761 29.4067 133.761 28.596C133.761 27.7747 133.931 27.044 134.273 26.404C134.625 25.764 135.105 25.268 135.713 24.916C136.331 24.5533 137.057 24.372 137.889 24.372C138.667 24.372 139.355 24.5427 139.953 24.884C140.55 25.2253 141.014 25.6947 141.345 26.292C141.686 26.8787 141.857 27.5347 141.857 28.26C141.857 28.3773 141.851 28.5 141.841 28.628C141.841 28.756 141.835 28.8893 141.825 29.028H135.793C135.835 29.6467 136.049 30.132 136.433 30.484C136.827 30.836 137.302 31.012 137.857 31.012C138.273 31.012 138.619 30.9213 138.897 30.74C139.185 30.548 139.398 30.3027 139.537 30.004H141.617C141.467 30.5053 141.217 30.964 140.865 31.38C140.523 31.7853 140.097 32.1053 139.585 32.34C139.083 32.5747 138.513 32.692 137.873 32.692ZM137.889 26.036C137.387 26.036 136.945 26.18 136.561 26.468C136.177 26.7453 135.931 27.172 135.825 27.748H139.777C139.745 27.2253 139.553 26.8093 139.201 26.5C138.849 26.1907 138.411 26.036 137.889 26.036ZM146.859 32.692C146.155 32.692 145.536 32.58 145.003 32.356C144.47 32.1213 144.043 31.8013 143.723 31.396C143.403 30.9907 143.211 30.5213 143.147 29.988H145.211C145.275 30.2973 145.446 30.564 145.723 30.788C146.011 31.0013 146.379 31.108 146.827 31.108C147.275 31.108 147.6 31.0173 147.803 30.836C148.016 30.6547 148.123 30.4467 148.123 30.212C148.123 29.8707 147.974 29.6413 147.675 29.524C147.376 29.396 146.96 29.2733 146.427 29.156C146.086 29.0813 145.739 28.9907 145.387 28.884C145.035 28.7773 144.71 28.644 144.411 28.484C144.123 28.3133 143.888 28.1 143.707 27.844C143.526 27.5773 143.435 27.252 143.435 26.868C143.435 26.164 143.712 25.572 144.267 25.092C144.832 24.612 145.622 24.372 146.635 24.372C147.574 24.372 148.32 24.5907 148.875 25.028C149.44 25.4653 149.776 26.068 149.883 26.836H147.947C147.83 26.2493 147.387 25.956 146.619 25.956C146.235 25.956 145.936 26.0307 145.723 26.18C145.52 26.3293 145.419 26.516 145.419 26.74C145.419 26.9747 145.574 27.1613 145.883 27.3C146.192 27.4387 146.603 27.5667 147.115 27.684C147.67 27.812 148.176 27.956 148.635 28.116C149.104 28.2653 149.478 28.4947 149.755 28.804C150.032 29.1027 150.171 29.5347 150.171 30.1C150.182 30.5907 150.054 31.0333 149.787 31.428C149.52 31.8227 149.136 32.132 148.635 32.356C148.134 32.58 147.542 32.692 146.859 32.692ZM155.265 32.692C154.561 32.692 153.943 32.58 153.409 32.356C152.876 32.1213 152.449 31.8013 152.129 31.396C151.809 30.9907 151.617 30.5213 151.553 29.988H153.617C153.681 30.2973 153.852 30.564 154.129 30.788C154.417 31.0013 154.785 31.108 155.233 31.108C155.681 31.108 156.007 31.0173 156.209 30.836C156.423 30.6547 156.529 30.4467 156.529 30.212C156.529 29.8707 156.38 29.6413 156.081 29.524C155.783 29.396 155.367 29.2733 154.833 29.156C154.492 29.0813 154.145 28.9907 153.793 28.884C153.441 28.7773 153.116 28.644 152.817 28.484C152.529 28.3133 152.295 28.1 152.113 27.844C151.932 27.5773 151.841 27.252 151.841 26.868C151.841 26.164 152.119 25.572 152.673 25.092C153.239 24.612 154.028 24.372 155.041 24.372C155.98 24.372 156.727 24.5907 157.281 25.028C157.847 25.4653 158.183 26.068 158.289 26.836H156.353C156.236 26.2493 155.793 25.956 155.025 25.956C154.641 25.956 154.343 26.0307 154.129 26.18C153.927 26.3293 153.825 26.516 153.825 26.74C153.825 26.9747 153.98 27.1613 154.289 27.3C154.599 27.4387 155.009 27.5667 155.521 27.684C156.076 27.812 156.583 27.956 157.041 28.116C157.511 28.2653 157.884 28.4947 158.161 28.804C158.439 29.1027 158.577 29.5347 158.577 30.1C158.588 30.5907 158.46 31.0333 158.193 31.428C157.927 31.8227 157.543 32.132 157.041 32.356C156.54 32.58 155.948 32.692 155.265 32.692ZM160.76 32.5V26.276H159.672V24.564H160.76V23.636C160.76 22.676 161 21.9933 161.48 21.588C161.97 21.1827 162.632 20.98 163.464 20.98H164.344V22.724H163.784C163.432 22.724 163.181 22.7933 163.032 22.932C162.882 23.0707 162.808 23.3053 162.808 23.636V24.564H164.52V26.276H162.808V32.5H160.76ZM169.118 32.692C168.126 32.692 167.358 32.3827 166.814 31.764C166.28 31.1453 166.014 30.2387 166.014 29.044V24.564H168.046V28.852C168.046 29.5347 168.184 30.0573 168.462 30.42C168.739 30.7827 169.176 30.964 169.774 30.964C170.339 30.964 170.803 30.7613 171.166 30.356C171.539 29.9507 171.726 29.3853 171.726 28.66V24.564H173.774V32.5H171.966L171.806 31.156C171.56 31.6253 171.203 31.9987 170.734 32.276C170.275 32.5533 169.736 32.692 169.118 32.692ZM175.876 32.5V20.98H177.924V32.5H175.876ZM187.701 32.692C186.88 32.692 186.154 32.5533 185.525 32.276C184.896 31.988 184.4 31.5827 184.037 31.06C183.674 30.5267 183.488 29.8813 183.477 29.124H185.637C185.658 29.6467 185.845 30.0893 186.197 30.452C186.56 30.804 187.056 30.98 187.685 30.98C188.229 30.98 188.661 30.852 188.981 30.596C189.301 30.3293 189.461 29.9773 189.461 29.54C189.461 29.0813 189.317 28.724 189.029 28.468C188.752 28.212 188.378 28.004 187.909 27.844C187.44 27.684 186.938 27.5133 186.405 27.332C185.541 27.0333 184.88 26.6493 184.421 26.18C183.973 25.7107 183.749 25.0867 183.749 24.308C183.738 23.6467 183.893 23.0813 184.213 22.612C184.544 22.132 184.992 21.764 185.557 21.508C186.122 21.2413 186.773 21.108 187.509 21.108C188.256 21.108 188.912 21.2413 189.477 21.508C190.053 21.7747 190.501 22.148 190.821 22.628C191.152 23.108 191.328 23.6787 191.349 24.34H189.157C189.146 23.9453 188.992 23.5987 188.693 23.3C188.405 22.9907 188 22.836 187.477 22.836C187.029 22.8253 186.65 22.9373 186.341 23.172C186.042 23.396 185.893 23.7267 185.893 24.164C185.893 24.5373 186.01 24.836 186.245 25.06C186.48 25.2733 186.8 25.4547 187.205 25.604C187.61 25.7533 188.074 25.9133 188.597 26.084C189.152 26.276 189.658 26.5 190.117 26.756C190.576 27.012 190.944 27.3533 191.221 27.78C191.498 28.196 191.637 28.7347 191.637 29.396C191.637 29.9827 191.488 30.5267 191.189 31.028C190.89 31.5293 190.448 31.9347 189.861 32.244C189.274 32.5427 188.554 32.692 187.701 32.692ZM196.112 32.692C195.429 32.692 194.869 32.5853 194.432 32.372C193.995 32.148 193.669 31.8547 193.456 31.492C193.243 31.1293 193.136 30.7293 193.136 30.292C193.136 29.556 193.424 28.9587 194 28.5C194.576 28.0413 195.44 27.812 196.592 27.812H198.608V27.62C198.608 27.076 198.453 26.676 198.144 26.42C197.835 26.164 197.451 26.036 196.992 26.036C196.576 26.036 196.213 26.1373 195.904 26.34C195.595 26.532 195.403 26.82 195.328 27.204H193.328C193.381 26.628 193.573 26.1267 193.904 25.7C194.245 25.2733 194.683 24.948 195.216 24.724C195.749 24.4893 196.347 24.372 197.008 24.372C198.139 24.372 199.029 24.6547 199.68 25.22C200.331 25.7853 200.656 26.5853 200.656 27.62V32.5H198.912L198.72 31.22C198.485 31.6467 198.155 31.9987 197.728 32.276C197.312 32.5533 196.773 32.692 196.112 32.692ZM196.576 31.092C197.163 31.092 197.616 30.9 197.936 30.516C198.267 30.132 198.475 29.6573 198.56 29.092H196.816C196.272 29.092 195.883 29.1933 195.648 29.396C195.413 29.588 195.296 29.828 195.296 30.116C195.296 30.4253 195.413 30.6653 195.648 30.836C195.883 31.0067 196.192 31.092 196.576 31.092ZM202.61 32.5V20.98H204.658V32.5H202.61ZM210.607 32.692C209.807 32.692 209.098 32.5213 208.479 32.18C207.86 31.8387 207.375 31.3587 207.023 30.74C206.671 30.1213 206.495 29.4067 206.495 28.596C206.495 27.7747 206.666 27.044 207.007 26.404C207.359 25.764 207.839 25.268 208.447 24.916C209.066 24.5533 209.791 24.372 210.623 24.372C211.402 24.372 212.09 24.5427 212.687 24.884C213.284 25.2253 213.748 25.6947 214.079 26.292C214.42 26.8787 214.591 27.5347 214.591 28.26C214.591 28.3773 214.586 28.5 214.575 28.628C214.575 28.756 214.57 28.8893 214.559 29.028H208.527C208.57 29.6467 208.783 30.132 209.167 30.484C209.562 30.836 210.036 31.012 210.591 31.012C211.007 31.012 211.354 30.9213 211.631 30.74C211.919 30.548 212.132 30.3027 212.271 30.004H214.351C214.202 30.5053 213.951 30.964 213.599 31.38C213.258 31.7853 212.831 32.1053 212.319 32.34C211.818 32.5747 211.247 32.692 210.607 32.692ZM210.623 26.036C210.122 26.036 209.679 26.18 209.295 26.468C208.911 26.7453 208.666 27.172 208.559 27.748H212.511C212.479 27.2253 212.287 26.8093 211.935 26.5C211.583 26.1907 211.146 26.036 210.623 26.036ZM219.593 32.692C218.889 32.692 218.271 32.58 217.737 32.356C217.204 32.1213 216.777 31.8013 216.457 31.396C216.137 30.9907 215.945 30.5213 215.881 29.988H217.945C218.009 30.2973 218.18 30.564 218.457 30.788C218.745 31.0013 219.113 31.108 219.561 31.108C220.009 31.108 220.335 31.0173 220.537 30.836C220.751 30.6547 220.857 30.4467 220.857 30.212C220.857 29.8707 220.708 29.6413 220.409 29.524C220.111 29.396 219.695 29.2733 219.161 29.156C218.82 29.0813 218.473 28.9907 218.121 28.884C217.769 28.7773 217.444 28.644 217.145 28.484C216.857 28.3133 216.623 28.1 216.441 27.844C216.26 27.5773 216.169 27.252 216.169 26.868C216.169 26.164 216.447 25.572 217.001 25.092C217.567 24.612 218.356 24.372 219.369 24.372C220.308 24.372 221.055 24.5907 221.609 25.028C222.175 25.4653 222.511 26.068 222.617 26.836H220.681C220.564 26.2493 220.121 25.956 219.353 25.956C218.969 25.956 218.671 26.0307 218.457 26.18C218.255 26.3293 218.153 26.516 218.153 26.74C218.153 26.9747 218.308 27.1613 218.617 27.3C218.927 27.4387 219.337 27.5667 219.849 27.684C220.404 27.812 220.911 27.956 221.369 28.116C221.839 28.2653 222.212 28.4947 222.489 28.804C222.767 29.1027 222.905 29.5347 222.905 30.1C222.916 30.5907 222.788 31.0333 222.521 31.428C222.255 31.8227 221.871 32.132 221.369 32.356C220.868 32.58 220.276 32.692 219.593 32.692Z" fill="#1F1F1F"/>
</svg>
